PathFileType	4	(X/Y/Z)	/home/nbianco/projects/addbio/data/HamnerRunning2013/Processed/subject10//results/MarkerData/run200.trc
DataRate	CameraRate	NumFrames	NumMarkers	Units	OrigDataRate	OrigDataStartFrame	OrigNumFrames
100	100	8	42	m	100	228	365
Frame#	Time	C7			CLAV			LACR			LASI			LCAL			LFAradius			LFAsuperior			LFAulna			LLEL			LMEL			LMT5			LPSI			LTB1			LTB2			LTB3			LTH1			LTH2			LTH3			LTOE			LUA1			LUA2			LUA3			RACR			RASI			RCAL			RFAradius			RFAsuperior			RFAulna			RLEL			RMEL			RMT5			RPSI			RTB1			RTB2			RTB3			RTH1			RTH2			RTH3			RTOE			RUA1			RUA2			RUA3		
		X1	Y1	Z1	X2	Y2	Z2	X3	Y3	Z3	X4	Y4	Z4	X5	Y5	Z5	X6	Y6	Z6	X7	Y7	Z7	X8	Y8	Z8	X9	Y9	Z9	X10	Y10	Z10	X11	Y11	Z11	X12	Y12	Z12	X13	Y13	Z13	X14	Y14	Z14	X15	Y15	Z15	X16	Y16	Z16	X17	Y17	Z17	X18	Y18	Z18	X19	Y19	Z19	X20	Y20	Z20	X21	Y21	Z21	X22	Y22	Z22	X23	Y23	Z23	X24	Y24	Z24	X25	Y25	Z25	X26	Y26	Z26	X27	Y27	Z27	X28	Y28	Z28	X29	Y29	Z29	X30	Y30	Z30	X31	Y31	Z31	X32	Y32	Z32	X33	Y33	Z33	X34	Y34	Z34	X35	Y35	Z35	X36	Y36	Z36	X37	Y37	Z37	X38	Y38	Z38	X39	Y39	Z39	X40	Y40	Z40	X41	Y41	Z41	X42	Y42	Z42

229	3.42	0.920215	1.46757	-0.303396	1.04987	1.3569	-0.292589	0.965458	1.44113	-0.458197	0.976623	0.946125	-0.429417	0.563387	0.348875	-0.359934	1.06533	1.12145	-0.488343	0.969129	1.16216	-0.58833	1.07244	1.0801	-0.541608	0.855904	1.16836	-0.629097	0.826304	1.13806	-0.566928	0.547107	0.17108	-0.456081	0.813695	0.987632	-0.363703	0.882324	0.363459	-0.384878	0.784694	0.375712	-0.443117	0.699947	0.300326	-0.376927	0.946583	0.744318	-0.466852	1.00368	0.642353	-0.454146	0.946993	0.535349	-0.443851	0.591422	0.131568	-0.362484	0.902793	1.33548	-0.546795	0.84561	1.2746	-0.519682	0.881406	1.24599	-0.593979	0.96809	1.42715	-0.15519	0.97781	0.975841	-0.188821	0.865593	0.107357	-0.290755	0.983742	1.0563	-0.0939454	0.881995	1.10767	-0.0138546	0.938442	1.00313	-0.0701376	0.785379	1.17201	-0.00249788	0.753139	1.15931	-0.0722506	1.03327	0.0500705	-0.194435	0.800749	0.998069	-0.257874	1.06394	0.359363	-0.241594	1.01295	0.290354	-0.197646	0.997071	0.186196	-0.267894	0.978328	0.737596	-0.128157	1.05815	0.673389	-0.146314	1.02733	0.569256	-0.166377	1.08811	0.0684904	-0.293327	0.896263	1.32887	-0.0614301	0.815896	1.29279	-0.0903	0.830838	1.2254	-0.0266786
230	3.43	0.919009	1.46541	-0.303774	1.04934	1.35412	-0.293277	0.965051	1.43881	-0.458885	0.974645	0.944547	-0.429974	0.580709	0.350601	-0.35906	1.05964	1.11439	-0.490686	0.961173	1.15883	-0.58711	1.0613	1.07383	-0.543973	0.84729	1.16745	-0.625944	0.819	1.13767	-0.563808	0.568322	0.174699	-0.45932	0.812307	0.986355	-0.362316	0.901579	0.364104	-0.384362	0.803918	0.37653	-0.44258	0.718588	0.301991	-0.376379	0.950527	0.743008	-0.466619	1.01395	0.643195	-0.453974	0.961869	0.534918	-0.4434	0.610534	0.133499	-0.36532	0.899014	1.33394	-0.546381	0.841449	1.27459	-0.516603	0.874409	1.24477	-0.591736	0.968652	1.4243	-0.155372	0.977366	0.973929	-0.189815	0.845409	0.107576	-0.290588	0.99606	1.05065	-0.0944416	0.895908	1.10153	-0.0125443	0.95181	0.99684	-0.0689489	0.797877	1.16306	0.00231467	0.76294	1.14886	-0.0655588	1.01284	0.0503605	-0.193898	0.798461	0.996196	-0.25738	1.05108	0.355424	-0.241793	0.998775	0.287446	-0.197884	0.978992	0.184253	-0.267848	0.973416	0.735027	-0.127913	1.05189	0.668256	-0.14543	1.01968	0.565556	-0.165831	1.06798	0.068458	-0.293153	0.899565	1.32341	-0.0624657	0.819878	1.28401	-0.0863053	0.840434	1.21768	-0.0235411
231	3.44	0.918148	1.46434	-0.303248	1.04877	1.35248	-0.293983	0.96419	1.43768	-0.459446	0.972592	0.944267	-0.430566	0.598464	0.350666	-0.358597	1.05404	1.10861	-0.492208	0.9531	1.15705	-0.585677	1.05004	1.06944	-0.545809	0.838869	1.16749	-0.622433	0.812304	1.13828	-0.560314	0.591329	0.176226	-0.461862	0.810843	0.986157	-0.360321	0.92118	0.36602	-0.383576	0.823514	0.377324	-0.442167	0.738007	0.303257	-0.376123	0.954341	0.742964	-0.466261	1.02297	0.645548	-0.454222	0.97619	0.535967	-0.442693	0.631687	0.134001	-0.367575	0.894974	1.33336	-0.545671	0.836714	1.27556	-0.514097	0.867757	1.24437	-0.589442	0.969618	1.4222	-0.155424	0.976096	0.972326	-0.190688	0.825277	0.10797	-0.2902	1.0088	1.04676	-0.0958967	0.9101	1.09702	-0.0115013	0.966342	0.992556	-0.0682552	0.810875	1.15571	0.00675271	0.773398	1.13996	-0.0591569	0.992522	0.0504071	-0.193297	0.798165	0.994847	-0.257538	1.03735	0.352596	-0.241717	0.984063	0.285435	-0.197644	0.960901	0.182909	-0.266559	0.968164	0.733443	-0.127613	1.04582	0.665223	-0.145013	1.01211	0.563276	-0.164771	1.04792	0.0683382	-0.292736	0.903138	1.31951	-0.0633331	0.824813	1.27627	-0.0827754	0.850503	1.2114	-0.0207702
232	3.45	0.917867	1.46436	-0.302536	1.04814	1.35204	-0.294836	0.962868	1.43777	-0.459873	0.97067	0.944994	-0.430999	0.616397	0.348968	-0.358534	1.0481	1.10349	-0.493119	0.945157	1.15601	-0.584591	1.03906	1.06643	-0.547771	0.830639	1.16842	-0.618679	0.805521	1.13994	-0.55614	0.616151	0.175641	-0.463688	0.80938	0.986885	-0.358378	0.940498	0.36929	-0.382098	0.843058	0.378595	-0.44167	0.758073	0.304081	-0.376129	0.957851	0.744155	-0.466032	1.03074	0.649422	-0.454783	0.989647	0.538675	-0.441767	0.654831	0.13305	-0.369254	0.890858	1.33388	-0.544726	0.831674	1.27749	-0.511976	0.861608	1.24482	-0.58709	0.970798	1.42104	-0.155609	0.974015	0.971423	-0.19111	0.805269	0.108503	-0.289722	1.02144	1.04515	-0.0982697	0.924068	1.09406	-0.0105888	0.981737	0.990644	-0.068069	0.823978	1.15021	0.0107761	0.784535	1.13301	-0.0534875	0.972379	0.0502792	-0.192738	0.799634	0.994778	-0.257877	1.02292	0.350324	-0.241192	0.96862	0.283923	-0.197058	0.942879	0.182055	-0.265128	0.963014	0.732792	-0.127263	1.03983	0.66364	-0.144888	1.00394	0.562014	-0.163553	1.02793	0.0682054	-0.292254	0.907622	1.31705	-0.0635919	0.830934	1.27013	-0.0798847	0.860848	1.20686	-0.01839
233	3.46	0.917917	1.46517	-0.302269	1.04758	1.35257	-0.295886	0.961271	1.43888	-0.460227	0.969017	0.946441	-0.431187	0.634353	0.345439	-0.358743	1.04146	1.09909	-0.494243	0.937427	1.1551	-0.584105	1.02873	1.06446	-0.550571	0.822459	1.17034	-0.614883	0.798153	1.14274	-0.551382	0.642624	0.173022	-0.464778	0.807889	0.988302	-0.357116	0.95903	0.373798	-0.379793	0.862195	0.38057	-0.440959	0.7786	0.304343	-0.376091	0.960881	0.746375	-0.46606	1.03763	0.654545	-0.455431	1.0021	0.54294	-0.440746	0.680056	0.130829	-0.37018	0.886823	1.33551	-0.543727	0.826859	1.28053	-0.509892	0.855848	1.24626	-0.584716	0.971998	1.42091	-0.156102	0.971582	0.971289	-0.191058	0.785346	0.109083	-0.28928	1.03373	1.04615	-0.101279	0.937712	1.09279	-0.00991615	0.997531	0.991218	-0.0685812	0.836963	1.14656	0.01434	0.79613	1.12807	-0.0486866	0.952302	0.0501189	-0.192219	0.801282	0.996052	-0.258164	1.00771	0.348188	-0.240496	0.952345	0.282582	-0.19644	0.924727	0.181669	-0.26463	0.957957	0.732791	-0.126956	1.03336	0.662466	-0.144888	0.994499	0.561122	-0.16256	1.00795	0.0681918	-0.291845	0.913417	1.3158	-0.0631931	0.838085	1.26597	-0.0776314	0.871291	1.20418	-0.0163857
234	3.47	0.917894	1.46651	-0.302493	1.04721	1.35385	-0.297085	0.959628	1.44077	-0.460586	0.967743	0.948447	-0.431093	0.65227	0.340053	-0.359033	1.03394	1.09606	-0.49643	0.929722	1.15463	-0.583917	1.0191	1.06351	-0.554468	0.814164	1.17341	-0.611267	0.79025	1.14682	-0.546491	0.670479	0.168532	-0.465148	0.806352	0.990204	-0.356754	0.976734	0.379247	-0.377204	0.880722	0.383117	-0.440118	0.799319	0.304001	-0.375703	0.963518	0.749461	-0.466335	1.04403	0.660656	-0.456001	1.01359	0.548485	-0.439801	0.70766	0.127692	-0.370058	0.882899	1.33815	-0.542841	0.8227	1.28471	-0.507545	0.850139	1.24887	-0.582406	0.973121	1.42184	-0.156885	0.969362	0.971788	-0.190652	0.765412	0.109604	-0.288895	1.04572	1.04987	-0.10456	0.951156	1.09354	-0.00974105	1.01323	0.994224	-0.0700472	0.849731	1.14468	0.0173716	0.807786	1.12495	-0.0445874	0.932166	0.0499984	-0.191682	0.801682	0.998123	-0.258497	0.991664	0.346133	-0.239936	0.935234	0.281372	-0.195991	0.906187	0.181614	-0.265005	0.952597	0.733098	-0.126824	1.02583	0.661028	-0.144873	0.983556	0.560177	-0.161967	0.987901	0.0682737	-0.291453	0.920357	1.31561	-0.0624844	0.845756	1.26389	-0.0757006	0.881646	1.20328	-0.0147343
235	3.48	0.917627	1.46831	-0.302878	1.04706	1.35577	-0.298359	0.958115	1.44319	-0.461019	0.966953	0.950939	-0.430682	0.670248	0.332813	-0.359292	1.02542	1.09489	-0.499723	0.921744	1.15551	-0.583466	1.00977	1.06368	-0.558981	0.805692	1.17778	-0.607997	0.782148	1.15223	-0.541942	0.699488	0.162404	-0.464847	0.804903	0.992562	-0.357089	0.99394	0.385279	-0.375224	0.898579	0.38588	-0.439315	0.820025	0.303124	-0.374904	0.9661	0.75338	-0.466827	1.05018	0.667654	-0.456476	1.02425	0.555055	-0.439104	0.737854	0.124003	-0.36876	0.879021	1.34164	-0.542135	0.819263	1.28987	-0.504833	0.844157	1.25272	-0.58025	0.974215	1.42381	-0.157847	0.967673	0.972791	-0.190003	0.745405	0.110042	-0.28854	1.05754	1.05614	-0.107852	0.964425	1.09654	-0.010231	1.02844	0.999519	-0.0725615	0.862197	1.14443	0.0197968	0.819153	1.12338	-0.0410049	0.911939	0.0499245	-0.191127	0.800855	1.00048	-0.259029	0.974835	0.344395	-0.239571	0.917387	0.280501	-0.195717	0.887175	0.181719	-0.265446	0.946392	0.733488	-0.126973	1.01694	0.659238	-0.144767	0.971281	0.559244	-0.161731	0.967773	0.0683133	-0.290956	0.92779	1.31659	-0.0619461	0.853375	1.26377	-0.0735659	0.891716	1.20393	-0.0134352
236	3.49	0.917278	1.47065	-0.303227	1.04706	1.35834	-0.299684	0.956811	1.44597	-0.46157	0.966651	0.953851	-0.429973	0.688547	0.323754	-0.35953	1.01582	1.09533	-0.503147	0.913346	1.15845	-0.582536	1.00006	1.0649	-0.563094	0.797093	1.18347	-0.605135	0.774104	1.15884	-0.538011	0.729532	0.154913	-0.463923	0.803783	0.995506	-0.357772	1.0109	0.391652	-0.374301	0.915773	0.388469	-0.438629	0.840721	0.301782	-0.373875	0.968979	0.758174	-0.467557	1.05614	0.675533	-0.456902	1.03421	0.562476	-0.438751	0.770334	0.120004	-0.366566	0.875098	1.34587	-0.541573	0.81625	1.29565	-0.501864	0.837776	1.25774	-0.578306	0.975416	1.4268	-0.158929	0.966501	0.974258	-0.189181	0.725358	0.110529	-0.288238	1.06914	1.0646	-0.111066	0.977295	1.10162	-0.0113048	1.04292	1.00687	-0.0759214	0.87421	1.14566	0.0215858	0.830071	1.12321	-0.0379615	0.891682	0.049872	-0.190686	0.799839	1.00305	-0.259728	0.957438	0.343283	-0.239339	0.89899	0.280238	-0.195559	0.86784	0.182006	-0.265501	0.939029	0.733954	-0.127458	1.00681	0.657404	-0.144647	0.958031	0.558711	-0.161788	0.947619	0.0682523	-0.290374	0.934962	1.31891	-0.0618732	0.860613	1.26542	-0.0708479	0.901341	1.20592	-0.0125186
